<svg xmlns="http://www.w3.org/2000/svg" xmlns:xlink="http://www.w3.org/1999/xlink" width="2000" zoomAndPan="magnify" viewBox="0 0 1500 262.499992" height="350" preserveAspectRatio="xMidYMid meet" version="1.0"><defs><g/><clipPath id="0c1ffffdc9"><path d="M 1.425781 134 L 106 134 L 106 258 L 1.425781 258 Z M 1.425781 134 " clip-rule="nonzero"/></clipPath></defs><g fill="#000000" fill-opacity="1"><g transform="translate(-5.533019, 130.560821)"><g><path d="M 42.460938 0 L 42.460938 -36.09375 L 39.375 -77.976562 L 50.566406 -58.09375 L 89.941406 0 L 123.523438 0 L 123.523438 -129.316406 L 88.785156 -129.316406 L 88.785156 -88.785156 L 91.292969 -50.761719 L 80.484375 -71.027344 L 42.460938 -129.316406 L 7.71875 -129.316406 L 7.71875 0 Z M 42.460938 0 "/></g></g></g><g fill="#000000" fill-opacity="1"><g transform="translate(125.689959, 130.560821)"><g><path d="M 54.8125 1.929688 C 76.625 1.929688 89.167969 -7.335938 96.503906 -16.792969 L 75.464844 -36.863281 C 71.800781 -28.566406 64.851562 -25.863281 55.394531 -25.863281 C 45.742188 -25.863281 38.214844 -29.144531 36.09375 -38.410156 L 97.277344 -38.410156 C 97.855469 -40.726562 98.242188 -47.867188 98.242188 -52.5 C 98.242188 -75.464844 84.152344 -97.277344 51.53125 -97.277344 C 22.390625 -97.277344 3.859375 -76.625 3.859375 -47.671875 C 3.859375 -18.722656 22.003906 1.929688 54.8125 1.929688 Z M 51.726562 -71.414062 C 62.148438 -71.414062 66.585938 -66.007812 67.167969 -56.359375 L 35.511719 -56.359375 C 36.285156 -66.394531 42.269531 -71.414062 51.726562 -71.414062 Z M 51.726562 -71.414062 "/></g></g></g><g fill="#000000" fill-opacity="1"><g transform="translate(229.124545, 130.560821)"><g><path d="M 28.757812 2.125 C 48.253906 2.125 55.585938 -13.125 58.480469 -25.476562 L 58.480469 -18.144531 C 58.480469 -4.632812 69.097656 0 79.90625 0 L 99.59375 0 L 99.59375 -26.441406 L 93.996094 -26.441406 C 90.519531 -26.441406 89.363281 -27.792969 89.363281 -32.039062 L 89.363281 -60.796875 C 89.363281 -85.308594 74.308594 -97.277344 49.796875 -97.277344 C 29.917969 -97.277344 13.125 -89.554688 1.15625 -78.746094 L 16.597656 -53.269531 C 24.511719 -62.148438 36.863281 -68.132812 47.867188 -68.132812 C 55.585938 -68.132812 58.480469 -65.816406 59.445312 -60.410156 L 33.777344 -52.5 C 12.546875 -45.9375 3.859375 -37.445312 3.859375 -22.003906 C 3.859375 -4.824219 14.863281 2.125 28.757812 2.125 Z M 34.742188 -26.828125 C 34.742188 -29.335938 36.285156 -31.265625 42.847656 -33.582031 L 58.480469 -39.179688 L 58.480469 -36.285156 C 58.480469 -26.441406 53.464844 -22.003906 42.074219 -22.003906 C 37.058594 -22.003906 34.742188 -23.738281 34.742188 -26.828125 Z M 34.742188 -26.828125 "/></g></g></g><g fill="#000000" fill-opacity="1"><g transform="translate(329.664504, 130.560821)"><g><path d="M 42.460938 0 L 42.460938 -48.058594 C 42.460938 -63.5 49.796875 -71.027344 57.710938 -71.027344 C 63.308594 -71.027344 65.621094 -67.359375 65.621094 -61.957031 C 65.621094 -56.164062 61.761719 -48.832031 58.289062 -44.777344 L 90.136719 -44.777344 C 92.835938 -49.601562 96.695312 -59.445312 96.695312 -71.027344 C 96.695312 -86.855469 90.519531 -97.277344 73.921875 -97.277344 C 54.429688 -97.277344 45.355469 -79.519531 42.460938 -63.113281 L 42.460938 -95.347656 L 7.71875 -95.347656 L 7.71875 0 Z M 42.460938 0 "/></g></g></g><g fill="#000000" fill-opacity="1"><g transform="translate(427.309838, 130.560821)"><g><path d="M 54.8125 1.929688 C 76.625 1.929688 89.167969 -7.335938 96.503906 -16.792969 L 75.464844 -36.863281 C 71.800781 -28.566406 64.851562 -25.863281 55.394531 -25.863281 C 45.742188 -25.863281 38.214844 -29.144531 36.09375 -38.410156 L 97.277344 -38.410156 C 97.855469 -40.726562 98.242188 -47.867188 98.242188 -52.5 C 98.242188 -75.464844 84.152344 -97.277344 51.53125 -97.277344 C 22.390625 -97.277344 3.859375 -76.625 3.859375 -47.671875 C 3.859375 -18.722656 22.003906 1.929688 54.8125 1.929688 Z M 51.726562 -71.414062 C 62.148438 -71.414062 66.585938 -66.007812 67.167969 -56.359375 L 35.511719 -56.359375 C 36.285156 -66.394531 42.269531 -71.414062 51.726562 -71.414062 Z M 51.726562 -71.414062 "/></g></g></g><g fill="#000000" fill-opacity="1"><g transform="translate(530.744424, 130.560821)"><g><path d="M 53.65625 1.929688 C 78.167969 1.929688 93.222656 -10.035156 93.222656 -27.984375 C 93.222656 -43.425781 82.800781 -51.148438 62.148438 -57.128906 L 52.304688 -60.027344 C 39.953125 -63.691406 37.25 -65.042969 37.25 -67.9375 C 37.25 -70.253906 39.566406 -71.800781 44.390625 -71.800781 C 53.847656 -71.800781 67.359375 -67.9375 79.710938 -58.867188 L 91.484375 -83.574219 C 83.957031 -89.167969 68.710938 -97.082031 47.671875 -97.082031 C 22.390625 -97.082031 5.984375 -85.695312 5.984375 -66.007812 C 5.984375 -49.988281 16.792969 -42.847656 36.285156 -37.636719 L 49.410156 -34.164062 C 59.058594 -31.652344 62.339844 -30.300781 62.339844 -27.40625 C 62.339844 -24.703125 59.832031 -23.546875 54.621094 -23.546875 C 43.234375 -23.546875 26.828125 -30.109375 15.828125 -37.636719 L 2.894531 -12.546875 C 12.351562 -5.210938 31.652344 1.929688 53.65625 1.929688 Z M 53.65625 1.929688 "/></g></g></g><g fill="#000000" fill-opacity="1"><g transform="translate(626.84594, 130.560821)"><g><path d="M 49.21875 1.929688 C 64.65625 1.929688 74.886719 -5.402344 78.941406 -10.035156 L 69.484375 -36.09375 C 66.394531 -31.265625 61.375 -28.179688 57.128906 -28.179688 C 52.691406 -28.179688 50.183594 -30.6875 50.183594 -35.707031 L 50.183594 -69.097656 L 73.34375 -69.097656 L 73.34375 -95.347656 L 50.183594 -95.347656 L 50.183594 -121.59375 L 15.441406 -106.15625 L 15.441406 -95.347656 L 1.929688 -95.347656 L 1.929688 -69.097656 L 15.441406 -69.097656 L 15.441406 -30.6875 C 15.441406 -12.160156 24.511719 1.929688 49.21875 1.929688 Z M 49.21875 1.929688 "/></g></g></g><g clip-path="url(#0c1ffffdc9)"><g fill="#000000" fill-opacity="1"><g transform="translate(-0.119821, 257.635626)"><g><path d="M 70.125 0 L 70.125 -93.378906 L 105.460938 -93.378906 L 105.460938 -122.671875 L 1.832031 -122.671875 L 1.832031 -93.378906 L 37.167969 -93.378906 L 37.167969 0 Z M 70.125 0 "/></g></g></g></g><g fill="#000000" fill-opacity="1"><g transform="translate(107.170379, 257.635626)"><g><path d="M 27.28125 2.015625 C 45.773438 2.015625 52.730469 -12.449219 55.476562 -24.167969 L 55.476562 -17.210938 C 55.476562 -4.394531 65.546875 0 75.800781 0 L 94.476562 0 L 94.476562 -25.085938 L 89.167969 -25.085938 C 85.871094 -25.085938 84.773438 -26.367188 84.773438 -30.394531 L 84.773438 -57.675781 C 84.773438 -80.929688 70.492188 -92.28125 47.238281 -92.28125 C 28.378906 -92.28125 12.449219 -84.957031 1.097656 -74.703125 L 15.746094 -50.535156 C 23.253906 -58.957031 34.972656 -64.632812 45.40625 -64.632812 C 52.730469 -64.632812 55.476562 -62.433594 56.394531 -57.308594 L 32.042969 -49.800781 C 11.902344 -43.578125 3.660156 -35.519531 3.660156 -20.871094 C 3.660156 -4.578125 14.097656 2.015625 27.28125 2.015625 Z M 32.957031 -25.449219 C 32.957031 -27.832031 34.421875 -29.660156 40.648438 -31.859375 L 55.476562 -37.167969 L 55.476562 -34.421875 C 55.476562 -25.085938 50.71875 -20.871094 39.914062 -20.871094 C 35.152344 -20.871094 32.957031 -22.519531 32.957031 -25.449219 Z M 32.957031 -25.449219 "/></g></g></g><g fill="#000000" fill-opacity="1"><g transform="translate(202.559797, 257.635626)"><g><path d="M 40.28125 -98.6875 L 40.28125 -122.671875 L 7.324219 -122.671875 L 7.324219 -98.6875 Z M 40.28125 0 L 40.28125 -90.449219 L 7.324219 -90.449219 L 7.324219 0 Z M 40.28125 0 "/></g></g></g><g fill="#000000" fill-opacity="1"><g transform="translate(250.162966, 257.635626)"><g><path d="M 40.28125 0 L 40.28125 -122.671875 L 7.324219 -122.671875 L 7.324219 0 Z M 40.28125 0 "/></g></g></g><g fill="#000000" fill-opacity="1"><g transform="translate(297.766135, 257.635626)"><g><path d="M 63.535156 0 L 69.941406 -32.226562 L 75.070312 -70.308594 L 80.195312 -32.226562 L 86.605469 0 L 126.882812 0 L 149.222656 -90.449219 L 113.335938 -90.449219 L 109.308594 -51.816406 L 106.378906 -19.957031 L 101.25 -51.632812 L 93.011719 -90.449219 L 56.757812 -90.449219 L 49.253906 -51.632812 L 43.757812 -19.957031 L 40.832031 -51.816406 L 36.800781 -90.449219 L 0.914062 -90.449219 L 23.253906 0 Z M 63.535156 0 "/></g></g></g><g fill="#000000" fill-opacity="1"><g transform="translate(447.899191, 257.635626)"><g><path d="M 40.28125 -98.6875 L 40.28125 -122.671875 L 7.324219 -122.671875 L 7.324219 -98.6875 Z M 40.28125 0 L 40.28125 -90.449219 L 7.324219 -90.449219 L 7.324219 0 Z M 40.28125 0 "/></g></g></g><g fill="#000000" fill-opacity="1"><g transform="translate(495.50236, 257.635626)"><g><path d="M 40.28125 0 L 40.28125 -49.253906 C 40.28125 -63.898438 42.660156 -67.378906 52.183594 -67.378906 C 62.070312 -67.378906 64.082031 -61.519531 64.082031 -50.535156 L 64.082031 0 L 97.039062 0 L 97.039062 -63.351562 C 97.039062 -81.84375 86.785156 -92.28125 69.941406 -92.28125 C 51.082031 -92.28125 42.84375 -78.546875 40.28125 -63.535156 L 40.28125 -90.449219 L 7.324219 -90.449219 L 7.324219 0 Z M 40.28125 0 "/></g></g></g><g fill="#000000" fill-opacity="1"><g transform="translate(599.313918, 257.635626)"><g><path d="M 37.535156 1.832031 C 56.941406 1.832031 62.070312 -11.535156 64.265625 -26.367188 L 64.265625 0 L 97.222656 0 L 97.222656 -122.671875 L 64.265625 -122.671875 L 64.265625 -63.71875 C 61.886719 -78.730469 55.113281 -92.28125 35.703125 -92.28125 C 15.929688 -92.28125 2.5625 -76.167969 2.5625 -45.222656 C 2.5625 -14.28125 15.929688 1.832031 37.535156 1.832031 Z M 36.070312 -45.222656 C 36.070312 -58.589844 40.648438 -67.378906 50.71875 -67.378906 C 58.042969 -67.378906 64.265625 -63.898438 64.265625 -49.253906 L 64.265625 -41.195312 C 64.265625 -26.546875 58.40625 -23.070312 51.449219 -23.070312 C 40.832031 -23.070312 36.070312 -31.859375 36.070312 -45.222656 Z M 36.070312 -45.222656 "/></g></g></g><g fill="#38b6ff" fill-opacity="1"><g transform="translate(682.1226, 254.119143)"><g><path d="M 128.300781 2.773438 C 177.886719 2.773438 213.949219 -21.152344 233.367188 -57.214844 L 181.351562 -101.945312 C 175.109375 -79.40625 157.078125 -57.5625 127.605469 -57.5625 C 95.359375 -57.5625 76.285156 -81.488281 76.285156 -116.507812 C 76.285156 -151.53125 95.359375 -175.457031 127.605469 -175.457031 C 157.078125 -175.457031 175.109375 -153.613281 181.351562 -131.074219 L 233.367188 -175.804688 C 213.949219 -211.867188 177.886719 -235.792969 128.300781 -235.792969 C 54.09375 -235.792969 8.667969 -183.433594 8.667969 -116.507812 C 8.667969 -49.585938 54.09375 2.773438 128.300781 2.773438 Z M 128.300781 2.773438 "/></g></g></g><g fill="#38b6ff" fill-opacity="1"><g transform="translate(899.524252, 254.119143)"><g><path d="M 96.050781 3.46875 C 153.613281 3.46875 187.941406 -34.675781 187.941406 -85.648438 C 187.941406 -136.621094 153.613281 -174.765625 96.050781 -174.765625 C 41.265625 -174.765625 6.933594 -136.621094 6.933594 -85.648438 C 6.933594 -34.675781 41.265625 3.46875 96.050781 3.46875 Z M 97.4375 -46.464844 C 81.488281 -46.464844 70.390625 -55.828125 70.390625 -85.648438 C 70.390625 -115.46875 81.488281 -124.832031 97.4375 -124.832031 C 113.390625 -124.832031 124.484375 -115.46875 124.484375 -85.648438 C 124.484375 -55.828125 113.390625 -46.464844 97.4375 -46.464844 Z M 97.4375 -46.464844 "/></g></g></g><g fill="#38b6ff" fill-opacity="1"><g transform="translate(1074.970794, 254.119143)"><g><path d="M 76.285156 0 L 76.285156 -232.324219 L 13.871094 -232.324219 L 13.871094 0 Z M 76.285156 0 "/></g></g></g><g fill="#38b6ff" fill-opacity="1"><g transform="translate(1145.702918, 254.119143)"><g><path d="M 96.050781 3.46875 C 153.613281 3.46875 187.941406 -34.675781 187.941406 -85.648438 C 187.941406 -136.621094 153.613281 -174.765625 96.050781 -174.765625 C 41.265625 -174.765625 6.933594 -136.621094 6.933594 -85.648438 C 6.933594 -34.675781 41.265625 3.46875 96.050781 3.46875 Z M 97.4375 -46.464844 C 81.488281 -46.464844 70.390625 -55.828125 70.390625 -85.648438 C 70.390625 -115.46875 81.488281 -124.832031 97.4375 -124.832031 C 113.390625 -124.832031 124.484375 -115.46875 124.484375 -85.648438 C 124.484375 -55.828125 113.390625 -46.464844 97.4375 -46.464844 Z M 97.4375 -46.464844 "/></g></g></g><g fill="#38b6ff" fill-opacity="1"><g transform="translate(1321.149479, 254.119143)"><g><path d="M 76.285156 0 L 76.285156 -86.34375 C 76.285156 -114.082031 89.460938 -127.605469 103.679688 -127.605469 C 113.734375 -127.605469 117.898438 -121.015625 117.898438 -111.308594 C 117.898438 -100.90625 110.960938 -87.730469 104.71875 -80.445312 L 161.933594 -80.445312 C 166.789062 -89.117188 173.722656 -106.800781 173.722656 -127.605469 C 173.722656 -156.039062 162.628906 -174.765625 132.808594 -174.765625 C 97.785156 -174.765625 81.488281 -142.863281 76.285156 -113.390625 L 76.285156 -171.296875 L 13.871094 -171.296875 L 13.871094 0 Z M 76.285156 0 "/></g></g></g></svg>